<?xml version="1.0" encoding="utf-8"?>
<!-- Generator: Adobe Illustrator 23.0.1, SVG Export Plug-In . SVG Version: 6.00 Build 0)  -->
<svg version="1.1" id="Capa_1" xmlns="http://www.w3.org/2000/svg" xmlns:xlink="http://www.w3.org/1999/xlink" x="0px" y="0px"
	 viewBox="0 0 58 58" style="enable-background:new 0 0 58 58;" xml:space="preserve">
<style type="text/css">
	.st0{fill:#424A60;}
	.st1{fill:#E7ECED;}
	.st2{fill:#262B35;}
	.st3{fill:#48A0DC;}
	.st4{fill:#61B872;}
	.st5{fill:#31978C;}
	.st6{fill:#44C4A1;}
	.st7{fill:#3EA69B;}
	.st8{fill:#F6C358;}
	.st9{fill:#FFFFFF;}
	.st10{fill:#FCD462;}
	.st11{fill:#DC8744;}
</style>
<g>
	<g>
		<path class="st0" d="M24.7,47.9H9c-1.2,0-2.1-1-2.1-2.1v-32c0-1.2,1-2.1,2.1-2.1h15.7c1.2,0,2.1,1,2.1,2.1v32
			C26.8,46.9,25.9,47.9,24.7,47.9z"/>
		<rect x="6.9" y="15.4" class="st1" width="20" height="25"/>
		<circle class="st2" cx="16.8" cy="44.1" r="1.9"/>
		<path class="st2" d="M16.8,14.1h-2.5c-0.3,0-0.6-0.3-0.6-0.6s0.3-0.6,0.6-0.6h2.5c0.3,0,0.6,0.3,0.6,0.6S17.2,14.1,16.8,14.1z"/>
		<path class="st2" d="M19.3,14.1h-0.6c-0.3,0-0.6-0.3-0.6-0.6s0.3-0.6,0.6-0.6h0.6c0.3,0,0.6,0.3,0.6,0.6S19.7,14.1,19.3,14.1z"/>
		<path class="st3" d="M21.8,18.5h-10c-1.4,0-2.5,1.1-2.5,2.5v1.2v1.2V26l2.5-2.5h10c1.4,0,2.5-1.1,2.5-2.5l0,0
			C24.3,19.6,23.2,18.5,21.8,18.5z"/>
		<path class="st4" d="M11.8,29.1h10c1.4,0,2.5,1.1,2.5,2.5v1.2v1.2v2.5l-2.5-2.5h-10c-1.4,0-2.5-1.1-2.5-2.5l0,0
			C9.3,30.2,10.5,29.1,11.8,29.1z"/>
	</g>
	<g>
		<rect x="24.8" y="21" transform="matrix(0.863 -0.5053 0.5053 0.863 -8.9488 23.8113)" class="st5" width="29.2" height="14.9"/>
		<path class="st6" d="M46.3,17.4L26.5,29c0.4,0.7,0.2,1.7-0.6,2.1l4.5,7.7c0.8-0.4,1.7-0.2,2.2,0.5l19.9-11.6
			C52,27,52.2,26.1,53,25.6l-4.5-7.7C47.7,18.4,46.8,18.2,46.3,17.4z"/>
		<g>
			<ellipse transform="matrix(0.863 -0.5053 0.5053 0.863 -8.948 23.8123)" class="st5" cx="39.4" cy="28.4" rx="4" ry="5.1"/>
			<ellipse class="st5" cx="49.2" cy="22.7" rx="0.9" ry="0.9"/>
		</g>
		<ellipse class="st7" cx="29.6" cy="34.1" rx="0.9" ry="0.9"/>
		<path class="st6" d="M41.3,32l-0.4-0.6c-0.8,0.4-1.7,0.5-2.6,0.3l0.2-1.1c0.7,0.1,1.4,0.1,1.9-0.1l-1-1.6
			c-0.7,0.2-1.3,0.3-1.8,0.2c-0.4-0.1-0.8-0.4-1.1-0.8c-0.3-0.5-0.4-1-0.2-1.5c0.2-0.5,0.5-0.9,1-1.3L37.2,25l0.5-0.3l0.3,0.4
			c0.7-0.3,1.4-0.5,2.1-0.4L40,25.8c-0.5,0-1,0-1.5,0.2l0.9,1.6l0,0c0.7-0.2,1.3-0.3,1.8-0.2c0.5,0.1,0.8,0.4,1.1,0.9
			c0.3,0.5,0.4,1,0.2,1.5c-0.2,0.5-0.5,1-1.1,1.3l0.4,0.6L41.3,32z M37.5,26.9c-0.1,0.2,0,0.4,0.1,0.6c0.1,0.2,0.3,0.3,0.4,0.4
			c0.2,0,0.5,0,0.8-0.1L38,26.3C37.7,26.5,37.6,26.7,37.5,26.9z M41.5,29.6c0.1-0.2,0.1-0.4-0.1-0.6c-0.1-0.2-0.3-0.3-0.5-0.4
			c-0.2,0-0.5,0-0.9,0.1l0.9,1.5C41.2,30,41.4,29.8,41.5,29.6z"/>
		<rect x="36.6" y="21" transform="matrix(0.863 -0.5053 0.5053 0.863 -8.9485 23.8116)" class="st8" width="5.7" height="14.9"/>
		<g>
			
				<rect x="37.3" y="22.1" transform="matrix(0.863 -0.5053 0.5053 0.863 -9.7708 23.0054)" class="st9" width="0.4" height="14.9"/>
			
				<rect x="41.1" y="19.9" transform="matrix(0.863 -0.5053 0.5053 0.863 -8.1265 24.6182)" class="st9" width="0.4" height="14.9"/>
		</g>
		<rect x="24.9" y="26" transform="matrix(0.982 -0.1888 0.1888 0.982 -5.6088 8.0643)" class="st7" width="29.2" height="14.9"/>
		<path class="st6" d="M27.2,41.2l-2-10.4c0.6-0.1,1-0.7,0.8-1.2l24.5-4.7c0.1,0.6,0.7,1,1.2,0.8l2,10.4c-0.6,0.1-1,0.7-0.8,1.2
			l-24.5,4.7C28.4,41.5,27.8,41.1,27.2,41.2z"/>
		<g>
			<ellipse transform="matrix(0.982 -0.1888 0.1888 0.982 -5.6086 8.0643)" class="st7" cx="39.5" cy="33.5" rx="4" ry="5.1"/>
			<ellipse class="st7" cx="50.7" cy="31.3" rx="0.9" ry="0.9"/>
			<ellipse class="st7" cx="28.4" cy="35.6" rx="0.9" ry="0.9"/>
		</g>
		<path class="st6" d="M40.1,37.5l-0.1-0.7c-0.9,0.1-1.8-0.1-2.6-0.6l0.5-1c0.6,0.4,1.2,0.5,1.8,0.5l-0.4-1.9
			c-0.8,0-1.3-0.2-1.7-0.4c-0.4-0.2-0.6-0.6-0.8-1.2c-0.1-0.6,0-1.1,0.3-1.5c0.3-0.4,0.8-0.7,1.4-0.9l-0.1-0.5l0.6-0.1l0.1,0.5
			c0.7-0.1,1.4,0,2.2,0.3l-0.5,1c-0.5-0.2-1-0.3-1.5-0.3l0.3,1.8l0,0c0.8,0,1.4,0.2,1.8,0.4c0.4,0.2,0.7,0.6,0.8,1.2
			c0.1,0.6,0,1.1-0.3,1.5c-0.3,0.4-0.8,0.7-1.5,0.9l0.1,0.7L40.1,37.5z M38.2,31.4c-0.1,0.2-0.2,0.4-0.1,0.6c0,0.2,0.1,0.4,0.3,0.5
			c0.2,0.1,0.4,0.2,0.8,0.2L38.8,31C38.5,31.1,38.3,31.2,38.2,31.4z M41.1,35.3c0.2-0.2,0.2-0.4,0.2-0.6c0-0.2-0.1-0.4-0.3-0.5
			C40.7,34,40.4,34,40,33.9l0.3,1.7C40.7,35.6,40.9,35.4,41.1,35.3z"/>
		<path class="st8" d="M33.7,46.1c0,1.4-2.7,2.5-5.9,2.5s-5.9-1.1-5.9-2.5v-2h11.9V46.1L33.7,46.1z"/>
		<ellipse class="st10" cx="27.7" cy="44.1" rx="5.9" ry="2.5"/>
		<g>
			<path class="st11" d="M27.7,42.1c-2.9,0-5.2,0.9-5.2,2c0,1.1,2.3,2,5.2,2s5.2-0.9,5.2-2S30.6,42.1,27.7,42.1z M27.7,45.8
				c-2.5,0-4.6-0.8-4.6-1.8c0-1,2.1-1.8,4.6-1.8s4.6,0.8,4.6,1.8C32.3,45,30.3,45.8,27.7,45.8z"/>
			<path class="st11" d="M27.5,45.4v-0.2c-0.8,0-1.5-0.2-2.1-0.4l0.6-0.3c0.5,0.2,1,0.3,1.5,0.3v-0.6c-0.7-0.1-1.1-0.1-1.4-0.2
				c-0.3-0.1-0.5-0.2-0.5-0.4c0-0.2,0.2-0.4,0.5-0.5c0.3-0.1,0.8-0.2,1.4-0.2v-0.2h0.6v0.2c0.6,0,1.2,0.1,1.8,0.3l-0.6,0.3
				c-0.4-0.1-0.8-0.2-1.2-0.2v0.6h0c0.7,0.1,1.1,0.1,1.5,0.2c0.3,0.1,0.5,0.3,0.5,0.4c0,0.2-0.2,0.4-0.5,0.5
				c-0.4,0.1-0.8,0.2-1.4,0.2v0.2H27.5L27.5,45.4z M26.9,43.3c-0.1,0.1-0.2,0.1-0.2,0.2s0.1,0.1,0.2,0.2c0.1,0,0.3,0.1,0.7,0.1v-0.6
				C27.3,43.2,27.1,43.2,26.9,43.3z M28.7,44.8c0.2-0.1,0.2-0.1,0.2-0.2c0-0.1-0.1-0.1-0.2-0.2c-0.1,0-0.4-0.1-0.7-0.1v0.6
				C28.4,44.8,28.6,44.8,28.7,44.8z"/>
		</g>
		<path class="st8" d="M33.7,43.6c0,1.4-2.7,2.5-5.9,2.5s-5.9-1.1-5.9-2.5v-2h11.9V43.6L33.7,43.6z"/>
		<ellipse class="st10" cx="27.7" cy="41.6" rx="5.9" ry="2.5"/>
		<g>
			<path class="st11" d="M27.7,39.6c-2.9,0-5.2,0.9-5.2,2c0,1.1,2.3,2,5.2,2s5.2-0.9,5.2-2C32.9,40.5,30.6,39.6,27.7,39.6z
				 M27.7,43.4c-2.5,0-4.6-0.8-4.6-1.8c0-1,2.1-1.8,4.6-1.8s4.6,0.8,4.6,1.8C32.3,42.6,30.3,43.4,27.7,43.4z"/>
			<path class="st11" d="M27.5,43v-0.2c-0.8,0-1.5-0.2-2.1-0.4l0.6-0.3c0.5,0.2,1,0.3,1.5,0.3v-0.6c-0.7-0.1-1.1-0.1-1.4-0.2
				c-0.3-0.1-0.5-0.2-0.5-0.4c0-0.2,0.2-0.4,0.5-0.5c0.3-0.1,0.8-0.2,1.4-0.2v-0.2h0.6v0.2c0.6,0,1.2,0.1,1.8,0.3l-0.6,0.3
				c-0.4-0.1-0.8-0.2-1.2-0.2v0.6h0c0.7,0.1,1.1,0.1,1.5,0.2c0.3,0.1,0.5,0.3,0.5,0.4c0,0.2-0.2,0.4-0.5,0.5
				c-0.4,0.1-0.8,0.2-1.4,0.2V43L27.5,43L27.5,43z M26.9,40.8c-0.1,0.1-0.2,0.1-0.2,0.2s0.1,0.1,0.2,0.2c0.1,0,0.3,0.1,0.7,0.1v-0.6
				C27.3,40.7,27.1,40.8,26.9,40.8z M28.7,42.3c0.2-0.1,0.2-0.1,0.2-0.2c0-0.1-0.1-0.1-0.2-0.2c-0.1,0-0.4-0.1-0.7-0.1v0.6
				C28.4,42.4,28.6,42.3,28.7,42.3z"/>
		</g>
		<path class="st8" d="M33.7,41.1c0,1.4-2.7,2.5-5.9,2.5s-5.9-1.1-5.9-2.5v-2h11.9V41.1L33.7,41.1z"/>
		<ellipse class="st10" cx="27.7" cy="39.1" rx="5.9" ry="2.5"/>
		<g>
			<path class="st11" d="M27.7,37.1c-2.9,0-5.2,0.9-5.2,2c0,1.1,2.3,2,5.2,2s5.2-0.9,5.2-2C32.9,38,30.6,37.1,27.7,37.1z M27.7,40.9
				c-2.5,0-4.6-0.8-4.6-1.8s2.1-1.8,4.6-1.8s4.6,0.8,4.6,1.8S30.3,40.9,27.7,40.9z"/>
			<path class="st11" d="M27.5,40.5v-0.2c-0.8,0-1.5-0.2-2.1-0.4l0.6-0.3c0.5,0.2,1,0.3,1.5,0.3v-0.6c-0.7-0.1-1.1-0.1-1.4-0.2
				c-0.3-0.1-0.5-0.2-0.5-0.4s0.2-0.4,0.5-0.5c0.3-0.1,0.8-0.2,1.4-0.2v-0.2h0.6v0.2c0.6,0,1.2,0.1,1.8,0.3l-0.6,0.3
				c-0.4-0.1-0.8-0.2-1.2-0.2v0.6h0c0.7,0.1,1.1,0.1,1.5,0.2c0.3,0.1,0.5,0.3,0.5,0.4c0,0.2-0.2,0.4-0.5,0.5
				c-0.4,0.1-0.8,0.2-1.4,0.2v0.2L27.5,40.5L27.5,40.5z M26.9,38.3c-0.1,0.1-0.2,0.1-0.2,0.2c0,0.1,0.1,0.1,0.2,0.2
				c0.1,0,0.3,0.1,0.7,0.1v-0.6C27.3,38.3,27.1,38.3,26.9,38.3z M28.7,39.8c0.2-0.1,0.2-0.1,0.2-0.2c0-0.1-0.1-0.1-0.2-0.2
				c-0.1,0-0.4-0.1-0.7-0.1v0.6C28.4,39.9,28.6,39.9,28.7,39.8z"/>
		</g>
		<path class="st8" d="M33.7,38.7c0,1.4-2.7,2.5-5.9,2.5s-5.9-1.1-5.9-2.5v-2h11.9V38.7L33.7,38.7z"/>
		<ellipse class="st10" cx="27.7" cy="36.6" rx="5.9" ry="2.5"/>
		<g>
			<path class="st11" d="M27.7,34.6c-2.9,0-5.2,0.9-5.2,2c0,1.1,2.3,2,5.2,2s5.2-0.9,5.2-2C32.9,35.5,30.6,34.6,27.7,34.6z
				 M27.7,38.4c-2.5,0-4.6-0.8-4.6-1.8c0-1,2.1-1.8,4.6-1.8s4.6,0.8,4.6,1.8C32.3,37.6,30.3,38.4,27.7,38.4z"/>
			<path class="st11" d="M27.5,38v-0.2c-0.8,0-1.5-0.2-2.1-0.4l0.6-0.3c0.5,0.2,1,0.3,1.5,0.3v-0.6c-0.7-0.1-1.1-0.1-1.4-0.2
				c-0.3-0.1-0.5-0.2-0.5-0.4s0.2-0.4,0.5-0.5c0.3-0.1,0.8-0.2,1.4-0.2v-0.2h0.6v0.2c0.6,0,1.2,0.1,1.8,0.3L29.3,36
				c-0.4-0.1-0.8-0.2-1.2-0.2v0.6h0c0.7,0.1,1.1,0.1,1.5,0.2c0.3,0.1,0.5,0.3,0.5,0.4c0,0.2-0.2,0.4-0.5,0.5
				c-0.4,0.1-0.8,0.2-1.4,0.2V38L27.5,38L27.5,38z M26.9,35.9c-0.1,0.1-0.2,0.1-0.2,0.2c0,0.1,0.1,0.1,0.2,0.2
				c0.1,0,0.3,0.1,0.7,0.1v-0.6C27.3,35.8,27.1,35.8,26.9,35.9z M28.7,37.3c0.2-0.1,0.2-0.1,0.2-0.2c0-0.1-0.1-0.1-0.2-0.2
				c-0.1,0-0.4-0.1-0.7-0.1v0.6C28.4,37.4,28.6,37.4,28.7,37.3z"/>
		</g>
		<path class="st8" d="M46.2,46.1c0,1.4-2.7,2.5-5.9,2.5c-3.3,0-5.9-1.1-5.9-2.5v-2h11.9V46.1L46.2,46.1z"/>
		<ellipse class="st10" cx="40.2" cy="44.1" rx="5.9" ry="2.5"/>
		<g>
			<path class="st11" d="M40.2,42.1c-2.9,0-5.2,0.9-5.2,2c0,1.1,2.3,2,5.2,2c2.9,0,5.2-0.9,5.2-2S43.1,42.1,40.2,42.1z M40.2,45.8
				c-2.5,0-4.6-0.8-4.6-1.8c0-1,2.1-1.8,4.6-1.8s4.6,0.8,4.6,1.8C44.8,45,42.8,45.8,40.2,45.8z"/>
			<path class="st11" d="M40,45.4v-0.2c-0.8,0-1.5-0.2-2.1-0.4l0.6-0.3c0.5,0.2,1,0.3,1.5,0.3v-0.6c-0.7-0.1-1.1-0.1-1.4-0.2
				c-0.3-0.1-0.5-0.2-0.5-0.4c0-0.2,0.2-0.4,0.5-0.5c0.3-0.1,0.8-0.2,1.4-0.2v-0.2h0.6v0.2c0.6,0,1.2,0.1,1.8,0.3l-0.6,0.3
				c-0.4-0.1-0.8-0.2-1.2-0.2v0.6h0c0.7,0.1,1.1,0.1,1.5,0.2c0.3,0.1,0.5,0.3,0.5,0.4c0,0.2-0.2,0.4-0.5,0.5
				c-0.4,0.1-0.8,0.2-1.4,0.2v0.2H40L40,45.4z M39.4,43.3c-0.1,0.1-0.2,0.1-0.2,0.2s0.1,0.1,0.2,0.2c0.1,0,0.3,0.1,0.7,0.1v-0.6
				C39.8,43.2,39.6,43.2,39.4,43.3z M41.3,44.8c0.2-0.1,0.2-0.1,0.2-0.2c0-0.1-0.1-0.1-0.2-0.2c-0.1,0-0.4-0.1-0.7-0.1v0.6
				C40.9,44.8,41.1,44.8,41.3,44.8z"/>
		</g>
		<path class="st8" d="M46.2,43.6c0,1.4-2.7,2.5-5.9,2.5c-3.3,0-5.9-1.1-5.9-2.5v-2h11.9V43.6L46.2,43.6z"/>
		<ellipse class="st10" cx="40.2" cy="41.6" rx="5.9" ry="2.5"/>
		<g>
			<path class="st11" d="M40.2,39.6c-2.9,0-5.2,0.9-5.2,2c0,1.1,2.3,2,5.2,2c2.9,0,5.2-0.9,5.2-2C45.4,40.5,43.1,39.6,40.2,39.6z
				 M40.2,43.4c-2.5,0-4.6-0.8-4.6-1.8c0-1,2.1-1.8,4.6-1.8s4.6,0.8,4.6,1.8C44.8,42.6,42.8,43.4,40.2,43.4z"/>
			<path class="st11" d="M40,43v-0.2c-0.8,0-1.5-0.2-2.1-0.4l0.6-0.3c0.5,0.2,1,0.3,1.5,0.3v-0.6c-0.7-0.1-1.1-0.1-1.4-0.2
				c-0.3-0.1-0.5-0.2-0.5-0.4c0-0.2,0.2-0.4,0.5-0.5c0.3-0.1,0.8-0.2,1.4-0.2v-0.2h0.6v0.2c0.6,0,1.2,0.1,1.8,0.3l-0.6,0.3
				c-0.4-0.1-0.8-0.2-1.2-0.2v0.6h0c0.7,0.1,1.1,0.1,1.5,0.2c0.3,0.1,0.5,0.3,0.5,0.4c0,0.2-0.2,0.4-0.5,0.5
				c-0.4,0.1-0.8,0.2-1.4,0.2V43L40,43L40,43z M39.4,40.8c-0.1,0.1-0.2,0.1-0.2,0.2s0.1,0.1,0.2,0.2c0.1,0,0.3,0.1,0.7,0.1v-0.6
				C39.8,40.7,39.6,40.8,39.4,40.8z M41.3,42.3c0.2-0.1,0.2-0.1,0.2-0.2c0-0.1-0.1-0.1-0.2-0.2c-0.1,0-0.4-0.1-0.7-0.1v0.6
				C40.9,42.4,41.1,42.3,41.3,42.3z"/>
		</g>
	</g>
</g>
</svg>
